<?xml version="1.0" encoding="UTF-8" standalone="no"?><!DOCTYPE svg PUBLIC "-//W3C//DTD SVG 1.1//EN" "http://www.w3.org/Graphics/SVG/1.1/DTD/svg11.dtd"><svg width="100%" height="100%" viewBox="0 0 406 481" version="1.1" xmlns="http://www.w3.org/2000/svg" xmlns:xlink="http://www.w3.org/1999/xlink" xml:space="preserve" style="fill-rule:evenodd;clip-rule:evenodd;stroke-linejoin:round;stroke-miterlimit:1.41421;"><path fill="#FFFFFF" d="M234.7,384.9c-1.2,0 -2.5,-0.3 -3.7,-1c-3.6,-2 -4.9,-6.6 -2.8,-10.2l50.7,-89.8c2,-3.6 6.6,-4.9 10.2,-2.8c3.6,2 4.9,6.6 2.8,10.2l-50.7,89.8c-1.3,2.4 -3.9,3.8 -6.5,3.8Zm-50.2,-0.8c-1.2,0 -2.5,-0.3 -3.7,-1c-3.6,-2 -4.9,-6.6 -2.8,-10.2l50.7,-89.8c2,-3.6 6.6,-4.9 10.2,-2.8c3.6,2 4.9,6.6 2.8,10.2l-50.7,89.8c-1.3,2.4 -3.9,3.8 -6.5,3.8Zm-71.8,-1.2c-0.9,0 -1.8,-0.2 -2.6,-0.5c-3.5,-1.3 -5.5,-5 -4.7,-8.6l20.2,-94.6l-31.7,-0.1c-2.5,0 -4.9,-1.3 -6.3,-3.4c-1.4,-2.1 -1.6,-4.8 -0.5,-7.1l40.3,-89.8c1.2,-2.7 3.9,-4.4 6.8,-4.4l0.1,0l56.9,0.4c2.8,0 5.3,1.5 6.6,4c1.3,2.4 1.2,5.4 -0.4,7.7l-30.9,46.9l22.6,0c2.7,0 5.3,1.5 6.6,3.9c1.3,2.4 1.2,5.3 -0.3,7.7l-9.9,15.4c-0.1,0.2 -0.2,0.5 -0.3,0.7l-65.8,118.1c-1.5,2.3 -4,3.7 -6.7,3.7Zm-7.2,-118.7l29.3,0.1c2.3,0 4.4,1 5.8,2.8c1.4,1.8 2,4.1 1.5,6.3l-11.7,54.8l41.3,-74.1c0.2,-0.5 0.4,-0.9 0.7,-1.3l2.9,-4.4l-22.8,0c-2.8,0 -5.3,-1.5 -6.6,-3.9c-1.3,-2.4 -1.2,-5.4 0.3,-7.7l31,-47l-38.2,-0.3l-33.5,74.7Zm213.7,4.3l-7.4,0c-4.1,0 -7.5,-3.4 -7.5,-7.5c0,-4.1 3.4,-7.5 7.5,-7.5l7.4,0c39.9,0 72.4,-32.5 72.4,-72.4c0,-39.9 -32.5,-72.4 -72.4,-72.4l-1.2,0c-2.2,0 -4.3,-1 -5.7,-2.7c-1.4,-1.7 -2,-3.9 -1.6,-6.1c0.7,-4 1.1,-8.2 1.1,-12.5c0,-39.9 -32.5,-72.4 -72.4,-72.4c-32.5,0 -61.2,21.8 -69.8,53.1c-0.6,2.2 -2.2,4 -4.3,4.9c-2.1,0.9 -4.5,0.8 -6.6,-0.4c-14.3,-8 -30.6,-12.2 -47.1,-12.2c-53.2,0 -96.5,43.3 -96.5,96.5c0,32.9 12.6,61.7 34.6,79.1c3.2,2.6 3.8,7.3 1.2,10.5c-2.6,3.2 -7.3,3.8 -10.5,1.2c-25.6,-20.3 -40.2,-53.4 -40.2,-90.9c0,-61.5 50,-111.5 111.5,-111.5c16.1,0 32,3.5 46.4,10.1c13,-33.1 45.2,-55.5 81.4,-55.5c48.2,0 87.4,39.2 87.4,87.4c0,2.2 -0.1,4.4 -0.2,6.6c44.8,3.7 80.1,41.4 80.1,87.1c-0.2,48.3 -39.4,87.5 -87.6,87.5Z" style="fill-rule:nonzero;"/></svg>